# xmcd
#
# Track frame offsets: 
#        150
#        16954
#        32067
#        50135
#        65490
#        83134
#        101267
#        116672
#        135492
#        152387
#        169817
#        185643
#        207599
#        221976
#        237121
#        261393
#        277107
#        302006
#        317582
#        335843
#
# Disc length: 4709 seconds
#
# Revision: 0
# Processed by: cddbd v1.5.2PL0 Copyright (c) Steve Scherf et al.
# Submitted via: ExactAudioCopy v0.99pb3
#
DISCID=2b126314
DTITLE=Various Artist - Nu Urban Traxx #134
DYEAR=2009
DGENRE=R&B
TTITLE0=Bow Wow Ft Johnita Austin - You Can Get It All
TTITLE1=Ray J Ft Truth - Sexy Ladies
TTITLE2=Jim Jones - Na Na Nana Na Na
TTITLE3=Florida Ft Pleasure P - Shone
TTITLE4=Fat Joe Ft Akon - One
TTITLE5=Ludacris Ft Plies - Nasty Girl
TTITLE6=David Rush Ft Keven Rudolf and Pitbull - Shooting Star
TTITLE7=Heather Headley - Jesus Is Love
TTITLE8=Drama Ft Akon Snoop Dogg and T.I. - Day Dreaming
TTITLE9=Bow Wow Ft Jermaine Dupri - Roc Da Mic
TTITLE10=Dream Ft Mariah Carey - My Love
TTITLE11=Jamie Foxx Ft TPain - Blame It
TTITLE12=Serani - No Games
TTITLE13=50 Cent - I Get It In
TTITLE14=Maino Ft TPain - All The Above
TTITLE15=FloRida - Right Round
TTITLE16=Young Jeezy Ft Nas - My President
TTITLE17=Elektrik Red - So Good
TTITLE18=The Game Ft Raheem DeVaughn - Touchdown
TTITLE19=DJ Felli Fell Ft TPain Sean Paul FloRida and Pitbull - Feel It
EXTD=
EXTT0=
EXTT1=
EXTT2=
EXTT3=
EXTT4=
EXTT5=
EXTT6=
EXTT7=
EXTT8=
EXTT9=
EXTT10=
EXTT11=
EXTT12=
EXTT13=
EXTT14=
EXTT15=
EXTT16=
EXTT17=
EXTT18=
EXTT19=
PLAYORDER=
